<svg
  width="50"
  height="50"
  viewBox="0 0 52 50"
  fill="none"
  xmlns="http://www.w3.org/2000/svg"
>
  <path
    d="M42.6628 50H10.5238C5.70405 50 1.78613 46.051 1.78613 41.1931V8.8069C1.78613 3.94898 5.70405 0 10.5238 0H42.6628C47.4825 0 51.4004 3.94898 51.4004 8.8069V41.2007C51.4004 46.051 47.4825 50 42.6628 50ZM10.5238 2.67339C7.16663 2.67339 4.43849 5.42316 4.43849 8.8069V41.2007C4.43849 44.5845 7.16663 47.3342 10.5238 47.3342H42.6628C46.0199 47.3342 48.748 44.5845 48.748 41.2007V8.8069C48.748 5.42316 46.0199 2.67339 42.6628 2.67339H10.5238Z"
    fill="#00D9FF"
  />
  <path
    d="M39.9796 27.3209C41.5081 25.7924 41.5178 23.3285 40.0013 21.812L33.0459 14.8566C33.0191 14.8298 32.9869 14.8084 32.9601 14.7816L25.3724 7.19385C23.3736 5.1951 20.1242 5.20793 18.1096 7.22253C16.095 9.23712 16.0822 12.4865 18.081 14.4853L27.0941 23.4984C27.7157 24.12 27.7117 25.1314 27.0852 25.7579L17.293 35.5501L16.8934 35.9497C15.9374 36.9057 15.5986 38.2412 15.8681 39.4614C15.9603 40.6338 16.4614 41.7938 17.367 42.6994C18.2726 43.605 19.4327 44.1061 20.6051 44.1983C21.8252 44.4679 23.1607 44.1291 24.1167 43.1731L24.5164 42.7734L34.3139 32.9759L39.0939 28.196L39.904 27.3858C39.9148 27.375 39.9257 27.3534 39.9365 27.3426C39.9526 27.3372 39.9688 27.3317 39.9796 27.3209Z"
    fill="#00D9FF"
  />
</svg>