<svg
  width="50"
  height="49"
  viewBox="0 0 50 49"
  fill="none"
  xmlns="http://www.w3.org/2000/svg"
>
  <path
    d="M49.5935 48.9961H0.406504C0.286903 48.9464 0.184793 48.8641 0.112615 48.7592C0.0404377 48.6543 0.00130995 48.5313 0 48.4052L0 36.1148C7.38821 35.191 12.1341 29.8869 15.9472 25.6246L16.0772 25.4789C17.5144 23.7571 19.0912 22.1494 20.7927 20.6711C21.9252 19.6173 23.41 18.9919 24.9776 18.9083H25.1809C26.747 18.9907 28.2309 19.614 29.3638 20.6652C31.0654 22.1434 32.6422 23.7511 34.0793 25.473L34.1219 25.5222C37.8984 29.7923 42.5996 35.1064 49.9553 36.0892V27.7065C46.6626 26.8143 44.0935 24.1297 40.5508 20.1373L40.4451 20.0211C36.5305 15.6427 32.0935 10.6812 25.128 10.6812H24.9248C17.9024 10.6812 13.4715 15.6998 9.56301 20.1353V20.1472C5.96545 24.1829 3.36179 26.897 0 27.7459V0.636185C0.00262221 0.46825 0.0726313 0.307906 0.195186 0.189145C0.31774 0.0703833 0.483206 0.00254105 0.656504 0L49.3902 0C49.5556 0.0128188 49.71 0.0852861 49.8229 0.20308C49.9358 0.320874 49.999 0.475423 50 0.636185V48.4091C49.9987 48.5352 49.9596 48.6582 49.8874 48.7631C49.8152 48.868 49.7131 48.9503 49.5935 49V48.9961Z"
    fill="#FF7832"
  />
  <path
    d="M49.5935 48.9961H0.406504C0.286903 48.9464 0.184793 48.8641 0.112615 48.7592C0.0404377 48.6543 0.00130995 48.5313 0 48.4052L0 36.1148C7.38821 35.191 12.1341 29.8869 15.9472 25.6246L16.0772 25.4789C17.5144 23.7571 19.0912 22.1494 20.7927 20.6711C21.9252 19.6173 23.41 18.9919 24.9776 18.9083H25.1809C26.747 18.9907 28.2309 19.614 29.3638 20.6652C31.0654 22.1434 32.6422 23.7511 34.0793 25.473L34.1219 25.5222C37.8984 29.7923 42.5996 35.1064 49.9553 36.0892V27.7065C46.6626 26.8143 44.0935 24.1297 40.5508 20.1373L40.4451 20.0211C36.5305 15.6427 32.0935 10.6812 25.128 10.6812H24.9248C17.9024 10.6812 13.4715 15.6998 9.56301 20.1353V20.1472C5.96545 24.1829 3.36179 26.897 0 27.7459V0.636185C0.00262221 0.46825 0.0726313 0.307906 0.195186 0.189145C0.31774 0.0703833 0.483206 0.00254105 0.656504 0L49.3902 0C49.5556 0.0128188 49.71 0.0852861 49.8229 0.20308C49.9358 0.320874 49.999 0.475423 50 0.636185V48.4091C49.9987 48.5352 49.9596 48.6582 49.8874 48.7631C49.8152 48.868 49.7131 48.9503 49.5935 49V48.9961Z"
    fill="#FF7832"
  />
</svg>